<svg width="28" height="28" viewBox="0 0 28 28" fill="none" xmlns="http://www.w3.org/2000/svg">
<path d="M20.3566 3.46961C21.1682 2.7204 21.2188 1.45508 20.4696 0.64344C19.7204 -0.168202 18.4551 -0.218814 17.6434 0.530393L20.3566 3.46961ZM6 14L4.64344 12.5304C4.23328 12.909 4 13.4418 4 14C4 14.5582 4.23328 15.091 4.64344 15.4696L6 14ZM17.6434 27.4696C18.4551 28.2188 19.7204 28.1682 20.4696 27.3566C21.2188 26.5449 21.1682 25.2796 20.3566 24.5304L17.6434 27.4696ZM17.6434 0.530393L4.64344 12.5304L7.35656 15.4696L20.3566 3.46961L17.6434 0.530393ZM4.64344 15.4696L17.6434 27.4696L20.3566 24.5304L7.35656 12.5304L4.64344 15.4696Z" fill="#0011A8"/>
</svg>
