<svg width="32" height="33" viewBox="0 0 32 33" fill="none" xmlns="http://www.w3.org/2000/svg">
<path d="M0 32.27L2.26 23.98C0.870002 21.56 0.129997 18.8 0.129997 15.99C0.129997 7.17 7.28 0 16.06 0C20.33 0 24.32 1.67 27.33 4.69C30.34 7.71 31.99 11.73 31.99 16C31.99 24.82 24.83 31.99 16.06 31.99H16.05C13.38 31.99 10.76 31.31 8.44 30.04L0 32.27Z" fill="url(#paint0_linear)"/>
<path d="M11.81 8.82031C11.49 8.11031 11.16 8.09031 10.85 8.08031C10.61 8.07031 10.32 8.07031 10.03 8.07031C9.74002 8.07031 9.29002 8.18031 8.89002 8.60031C8.50002 9.03031 7.40002 10.0603 7.40002 12.1703C7.40002 14.2703 8.93002 16.3103 9.14002 16.6003C9.35002 16.8903 12.09 21.3503 16.42 23.0703C20.02 24.5003 20.76 24.2103 21.54 24.1403C22.33 24.0703 24.06 23.1003 24.42 22.1003C24.77 21.1003 24.77 20.2403 24.66 20.0603C24.55 19.8803 24.27 19.7703 23.84 19.5603C23.41 19.3503 21.32 18.3103 20.93 18.1603C20.54 18.0103 20.25 17.9503 19.97 18.3703C19.68 18.8003 18.87 19.7603 18.62 20.0503C18.37 20.3403 18.12 20.3703 17.7 20.1603C17.27 19.9503 15.9 19.4903 14.27 18.0303C13 16.9003 12.14 15.4903 11.9 15.0603C11.65 14.6303 11.87 14.4003 12.09 14.1903C12.28 14.0003 12.52 13.6903 12.73 13.4403C12.94 13.1903 13.02 13.0103 13.15 12.7303C13.29 12.4403 13.22 12.2003 13.12 11.9803C13.02 11.7703 12.18 9.66031 11.81 8.82031Z" fill="white"/>
<defs>
<linearGradient id="paint0_linear" x1="0.0011" y1="16.1363" x2="32.0011" y2="16.1363" gradientUnits="userSpaceOnUse">
<stop stop-color="#20B038"/>
<stop offset="1" stop-color="#60D66A"/>
</linearGradient>
</defs>
</svg>
