<svg width="173" height="127" viewBox="0 0 173 127" fill="none" xmlns="http://www.w3.org/2000/svg">
<path d="M7.07702 58.8386C2.81652 55.0789 1.13001 52.4999 0.105543 50.4528C-0.918919 48.3999 5.92129 47.8338 7.39949 47.9796C9.30288 48.1626 11.7228 48.6144 11.7228 48.6144L7.07702 58.8386Z" fill="#2B2975"/>
<path d="M34.6092 76.3251C33.9757 76.165 30.5142 74.0607 29.7009 72.4481C28.0144 69.0601 21.4453 69.9264 21.4453 69.9264L35.5538 54.833" fill="#2B2975"/>
<path d="M19.051 45.5987C20.201 40.0291 21.6165 37.29 22.8863 35.3916C24.1562 33.4845 27.943 39.2199 28.6393 40.5208C29.4697 42.0505 30.6882 44.5722 30.6882 44.5722L19.051 45.5987Z" fill="#2B2975"/>
<path d="M62.0099 27.5712C59.5414 30.0444 57.541 33.0293 55.1696 35.614C53.7742 37.1293 50.7493 40.2057 51.2858 36.2001C51.9564 31.1194 56.488 26.5448 58.8452 22.176C61.4334 17.4041 63.3653 11.5915 61.559 6.21631C59.7184 0.7525 50.8606 -3.15308 47.6959 3.52015C45.8125 7.50864 48.5748 11.4657 52.9752 10.8996C53.1835 10.8653 53.4004 10.851 53.6087 10.8167C52.7155 10.7824 51.8223 10.7681 50.9234 10.7337C51.8023 10.9282 51.1317 9.91603 51.0204 10.9653C50.8749 12.2148 51.0062 13.3899 50.7122 14.6479C50.113 17.2411 48.9258 19.6285 47.7416 21.9902C45.3217 26.8593 41.6462 32.6376 42.6221 38.3187C43.5838 43.9512 49.0115 48.0855 54.6303 45.7239C60.0266 43.4594 64.5468 35.4167 65.8794 29.9757C66.4302 27.8142 63.7477 25.83 62.0099 27.5712Z" fill="#2B2975"/>
<path d="M34.318 49.0634C37.7624 55.3163 37.8594 61.9409 27.6091 67.5591C18.2491 72.6884 11.8626 69.6749 8.41825 63.4219C4.97389 57.169 7.97879 48.8947 15.1272 44.9262C22.2727 40.972 30.8737 42.8161 34.318 49.0634Z" fill="#2B2975"/>
<path d="M21.5564 58.6415C20.5804 58.8988 19.7357 59.4249 19.0537 60.1711C18.9424 60.3027 18.9424 60.5285 19.0052 60.6744C19.088 60.8573 19.2506 60.9546 19.4304 60.9688C19.4789 60.9688 19.5417 60.9688 19.5902 61.0032C19.4589 60.9545 19.6045 61.0032 19.6387 61.0175C19.7215 61.0317 19.7842 61.0661 19.8699 61.1004C19.9041 61.1147 19.9526 61.1347 19.9811 61.149C19.9954 61.149 19.9954 61.1633 20.0154 61.1633C20.0782 61.1976 20.1467 61.2462 20.2094 61.2748C20.5176 61.4692 20.8287 61.6665 21.1511 61.8466C21.1654 61.8609 21.1997 61.8809 21.2139 61.8809C21.2139 61.8809 21.2139 61.8809 21.2282 61.8809C21.2425 61.8809 21.2425 61.8809 21.2624 61.8952C21.2767 61.8952 21.2767 61.8952 21.2967 61.9095C21.505 61.9724 21.7704 61.8266 21.8674 61.6293C21.8817 61.615 21.8817 61.595 21.8817 61.5807C21.9159 61.4978 21.9302 61.4206 21.896 61.3234C21.8817 61.2891 21.8817 61.2405 21.8817 61.2119V61.1976C21.8817 61.1004 21.896 61.0146 21.9159 60.9174C21.9159 60.8688 21.9302 60.8202 21.9502 60.7716C21.9502 60.7573 21.9644 60.723 21.9644 60.7087C21.9987 60.6115 22.013 60.4999 22.0272 60.3999C22.1242 59.9739 22.2584 59.505 22.1585 59.0647C22.0929 58.8016 21.8332 58.5586 21.5564 58.6415ZM21.9445 60.6886C21.9587 60.6115 21.9445 60.6601 21.9445 60.6886V60.6886Z" fill="#7B7CBB"/>
<path d="M27.6376 49.1316C27.7489 49.1459 27.8317 49.2631 27.7974 49.3775C27.4065 50.6269 27.0526 52.1451 26.402 53.2059C25.7057 54.3295 24.6441 54.9471 23.4313 55.3216C22.9576 55.4674 22.4754 55.5046 22.0017 55.5789C21.8904 55.5932 21.7705 55.496 21.7705 55.3845C21.8333 53.8206 22.3555 52.2623 23.2487 51.0672C24.1419 49.8664 26.0595 48.9229 27.6376 49.1316Z" fill="white"/>
<path d="M26.1592 52.6949C26.0622 52.4147 25.9138 52.1573 25.734 51.9258C25.54 51.6799 25.3288 51.4712 25.0634 51.291C24.7067 51.0451 24.33 50.8164 23.8792 50.8164C23.6708 50.8164 23.4254 50.8993 23.2456 51.0251C23.063 51.1566 22.9888 51.2824 22.9175 51.5483C22.869 51.7313 22.8832 51.9057 22.9317 52.0859C23.0145 52.3661 23.1401 52.6234 23.2885 52.855C23.6651 53.4268 24.2444 53.8614 24.8779 54.1044C25.1861 54.2159 25.5114 54.1187 25.56 54.1044C25.8881 54.0072 26.2791 53.5812 26.242 53.1409C26.2562 52.9751 26.222 52.8636 26.1592 52.6949Z" fill="#7B7CBB"/>
<path d="M17.0705 58.1037C17.1676 58.1523 17.2018 58.2867 17.119 58.3839C16.5198 59.1187 15.872 59.8164 15.0901 60.3539C14.2454 60.94 13.2352 61.3174 12.2165 61.2688C11.2405 61.2202 10.3331 60.7942 9.48266 60.3253C9.38564 60.2767 9.37137 60.1423 9.41988 60.068C10.2503 58.8814 11.3718 57.692 12.7529 57.3489C14.1284 56.9915 15.7892 57.4547 17.0705 58.1037Z" fill="white"/>
<path d="M14.211 58.5103C14.0798 58.1186 13.9171 57.7269 13.5633 57.4695C13.1095 57.1407 12.4617 57.2236 12.1478 57.7011C11.9652 57.9813 11.9024 58.373 11.891 58.6789C11.8282 59.3766 12.0365 60.0971 12.379 60.6975C12.4903 60.8919 12.7214 61.0406 12.9012 61.1235C13.1809 61.235 13.6203 61.2064 13.8572 60.9634C14.017 60.8033 14.1026 60.586 14.1853 60.3916C14.2966 60.0971 14.3452 59.7711 14.3452 59.4623C14.3737 59.145 14.3223 58.8019 14.211 58.5103Z" fill="#7B7CBB"/>
<path d="M142.84 25.7217H34.926C33.3879 25.7245 31.9154 26.3393 30.8281 27.4314C29.7409 28.5208 29.1302 29.9989 29.1245 31.54V96.634C29.1274 98.1751 29.7409 99.6532 30.8281 100.743C31.9154 101.832 33.3879 102.447 34.926 102.452H71.5298V110.052H59.1678C58.7569 110.052 58.3631 110.215 58.072 110.507C57.7809 110.798 57.6183 111.193 57.6183 111.607V112.474C57.6183 112.885 57.7838 113.283 58.072 113.574C58.3631 113.866 58.7569 114.029 59.1678 114.029H118.598C119.009 114.029 119.406 113.866 119.697 113.574C119.988 113.283 120.15 112.888 120.15 112.474V111.607C120.15 111.196 119.988 110.798 119.697 110.507C119.406 110.215 119.012 110.052 118.598 110.052H106.236V102.452H142.84C144.378 102.447 145.85 101.832 146.938 100.743C148.025 99.6532 148.636 98.1751 148.638 96.634V31.5372C148.636 29.9961 148.022 28.5179 146.938 27.4286C145.85 26.3393 144.378 25.7245 142.84 25.7217Z" fill="#C6C6E3"/>
<path d="M142.418 29.2979H35.3484C34.0385 29.2979 32.9741 30.3643 32.9741 31.6767V93.5255C32.9741 94.8378 34.0385 95.9043 35.3484 95.9043H142.418C143.727 95.9043 144.789 94.8378 144.789 93.5255V31.6767C144.792 30.3643 143.727 29.2979 142.418 29.2979Z" fill="#E8E9F5"/>
<path d="M63.5423 85.3577C63.5423 86.0353 63.6765 86.7044 63.9333 87.3305C64.193 87.9567 64.5725 88.5256 65.0491 89.0031C65.5256 89.4806 66.0935 89.8608 66.7185 90.121C67.3406 90.3784 68.0112 90.5127 68.6846 90.5127H110.708C112.072 90.5127 113.379 89.9695 114.343 89.0031C115.308 88.0367 115.85 86.7244 115.85 85.3577V56.2917C115.85 56.1345 115.818 55.9801 115.759 55.8343C115.699 55.6884 115.61 55.5569 115.499 55.4454C115.388 55.3339 115.256 55.2453 115.111 55.1852C114.968 55.1252 114.811 55.0938 114.654 55.0938H64.7209C64.564 55.0938 64.4099 55.1252 64.2643 55.1852C64.1216 55.2453 63.9875 55.3339 63.8791 55.4454C63.7678 55.5569 63.6793 55.6884 63.6194 55.8343C63.5595 55.9772 63.5281 56.1345 63.5281 56.2917L63.5423 85.3577Z" fill="#ABACD6"/>
<path d="M106.701 32.6693L65.8596 42.5734C65.2004 42.7335 64.5811 43.0194 64.0361 43.4168C63.4882 43.8171 63.0259 44.3203 62.6749 44.8979C62.321 45.4754 62.087 46.1187 61.9815 46.7878C61.8759 47.4568 61.9044 48.1401 62.0642 48.7977L63.4682 54.4331C63.5424 54.7419 63.7365 55.0078 64.0076 55.1707C64.2787 55.3366 64.6011 55.388 64.9093 55.3137L113.43 43.5512C113.733 43.4769 113.992 43.2882 114.158 43.0251C114.323 42.7621 114.38 42.4447 114.315 42.1417L112.911 36.5092C112.757 35.8458 112.471 35.2225 112.075 34.6707C111.678 34.1189 111.178 33.6529 110.599 33.2955C110.023 32.9381 109.381 32.7008 108.713 32.5921C108.042 32.4863 107.36 32.5121 106.701 32.6693Z" fill="#3D479D"/>
<path d="M115.847 55.0938H63.5396V67.2508H115.847V55.0938Z" fill="#3D479D"/>
<path fill-rule="evenodd" clip-rule="evenodd" d="M95.3893 78.3155L90.3925 75.4278L85.4043 72.54V84.0909L90.3925 81.2032L95.3893 78.3155Z" fill="#F15A59"/>
<path d="M100.138 67.2508H103.357L110.151 55.0938H106.927L100.138 67.2508Z" fill="#2B2975"/>
<path d="M92.1646 67.2508H95.3892L102.175 55.0938H98.9505L92.1646 67.2508Z" fill="#2B2975"/>
<path d="M84.1885 67.2508H87.4074L94.202 55.0938H90.983L84.1885 67.2508Z" fill="#2B2975"/>
<path d="M76.2153 67.2508H79.44L86.2288 55.0938H83.0099L76.2153 67.2508Z" fill="#2B2975"/>
<path d="M68.2395 67.2508H71.4641L78.2501 55.0938H75.0312L68.2395 67.2508Z" fill="#2B2975"/>
<path d="M96.4221 35.1717L99.5497 34.4111L108.998 44.624L105.871 45.3845L96.4221 35.1717Z" fill="#2B2975"/>
<path d="M88.6719 37.0439L91.7966 36.292L101.245 46.5048L98.1118 47.2654L88.6719 37.0439Z" fill="#2B2975"/>
<path d="M80.9155 38.9256L84.0488 38.165L93.4973 48.3836L90.364 49.1356L80.9155 38.9256Z" fill="#2B2975"/>
<path d="M73.165 40.8035L76.2983 40.043L85.7496 50.2558L82.6163 51.0163L73.165 40.8035Z" fill="#2B2975"/>
<path d="M65.4172 42.6787L68.5505 41.9268L77.999 52.1367L74.8657 52.8973L65.4172 42.6787Z" fill="#2B2975"/>
<path d="M123.791 112.314C123.509 111.874 123.115 111.514 122.65 111.273C122.185 111.033 121.665 110.919 121.143 110.945C121.212 110.567 121.186 110.181 121.075 109.815C120.963 109.449 120.767 109.115 120.498 108.84C120.073 108.423 119.505 108.177 118.909 108.154C118.312 108.131 117.73 108.334 117.274 108.717C116.817 109.103 116.52 109.644 116.443 110.238C116.363 110.833 116.509 111.434 116.846 111.925C116.423 111.905 116.007 111.997 115.63 112.194C115.256 112.388 114.939 112.68 114.711 113.037C114.486 113.395 114.357 113.807 114.34 114.227C114.323 114.65 114.417 115.07 114.614 115.442C114.811 115.817 115.105 116.131 115.462 116.357C115.818 116.583 116.229 116.709 116.652 116.72C117.074 116.734 117.491 116.637 117.862 116.437C118.232 116.237 118.546 115.94 118.769 115.582C119.2 116.248 119.879 116.717 120.655 116.883C121.431 117.049 122.242 116.897 122.907 116.466C123.572 116.034 124.04 115.351 124.205 114.576C124.374 113.795 124.222 112.983 123.791 112.314Z" fill="#E79F24"/>
<path d="M137.9 85.2494C143.096 85.2494 147.308 81.0264 147.308 75.8171C147.308 70.6077 143.096 66.3848 137.9 66.3848C132.703 66.3848 128.491 70.6077 128.491 75.8171C128.491 81.0264 132.703 85.2494 137.9 85.2494Z" fill="#FDB62E"/>
<path d="M148.165 60.7205C150.011 60.7205 151.506 59.2223 151.506 57.3725C151.506 55.5226 150.011 54.0244 148.165 54.0244C146.318 54.0244 144.823 55.5226 144.823 57.3725C144.823 59.2223 146.318 60.7205 148.165 60.7205Z" fill="#FDB62E"/>
<path d="M152.873 61.4919C154.403 61.4919 155.644 60.2482 155.644 58.7157C155.644 57.1803 154.403 55.9395 152.873 55.9395C151.344 55.9395 150.102 57.1832 150.102 58.7157C150.102 60.2482 151.344 61.4919 152.873 61.4919Z" fill="#FDB62E"/>
<path d="M136.707 65.0489C137.709 65.0489 138.522 64.234 138.522 63.2304C138.522 62.224 137.709 61.4092 136.707 61.4092C135.703 61.4092 134.892 62.224 134.892 63.2304C134.892 64.234 135.703 65.0489 136.707 65.0489Z" fill="#FDB62E"/>
<path d="M169.593 75.4625C171.122 75.4625 172.363 74.2188 172.363 72.6863C172.363 71.151 171.122 69.9072 169.593 69.9072C168.063 69.9072 166.822 71.151 166.822 72.6863C166.822 74.2217 168.063 75.4625 169.593 75.4625Z" fill="#FDB62E"/>
<path d="M148.47 87.0471C156.771 87.0471 163.497 80.6169 163.497 72.6857C163.497 64.7544 156.768 58.3242 148.47 58.3242C140.168 58.3242 133.442 64.7544 133.442 72.6857C133.442 80.6169 140.171 87.0471 148.47 87.0471Z" fill="#FDB62E"/>
<path d="M157.587 87.2906C164.45 87.2906 170.015 81.7124 170.015 74.8333C170.015 67.9542 164.45 62.3789 157.587 62.3789C150.724 62.3789 145.16 67.9571 145.16 74.8333C145.16 81.7153 150.724 87.2906 157.587 87.2906Z" fill="#FDB62E"/>
<path d="M142.62 66.8764C145.636 66.8764 148.079 64.4261 148.079 61.404C148.079 58.3819 145.636 55.9316 142.62 55.9316C139.606 55.9316 137.161 58.3819 137.161 61.404C137.161 64.4261 139.604 66.8764 142.62 66.8764Z" fill="#FDB62E"/>
<path d="M158.332 65.4068C161.052 65.4068 163.255 63.1967 163.255 60.472C163.255 57.7472 161.052 55.5371 158.332 55.5371C155.613 55.5371 153.41 57.7444 153.41 60.472C153.41 63.1996 155.615 65.4068 158.332 65.4068Z" fill="#FDB62E"/>
<path d="M128.748 72.92C130.928 72.92 132.695 71.1473 132.695 68.9629C132.695 66.7785 130.928 65.0059 128.748 65.0059C126.568 65.0059 124.802 66.7785 124.802 68.9629C124.802 71.1473 126.571 72.92 128.748 72.92Z" fill="#FDB62E"/>
<path d="M163.603 65.2698C164.667 65.2698 165.529 64.4035 165.529 63.3371C165.529 62.2706 164.664 61.4043 163.603 61.4043C162.538 61.4043 161.674 62.2706 161.674 63.3371C161.676 64.4035 162.538 65.2698 163.603 65.2698Z" fill="#FDB62E"/>
<path d="M133.953 71.2481C136.133 71.2481 137.9 69.4754 137.9 67.291C137.9 65.1067 136.133 63.334 133.953 63.334C131.773 63.334 130.007 65.1067 130.007 67.291C130.007 69.4783 131.773 71.2481 133.953 71.2481Z" fill="#FDB62E"/>
<path d="M166.365 72.0654C168.557 72.0654 170.332 70.2842 170.332 68.0884C170.332 65.8926 168.554 64.1113 166.365 64.1113C164.173 64.1113 162.398 65.8926 162.398 68.0884C162.398 70.2871 164.173 72.0654 166.365 72.0654Z" fill="#FDB62E"/>
<path d="M127.002 77.029C128.511 77.029 129.733 75.8024 129.733 74.2899C129.733 72.7774 128.508 71.5537 127.002 71.5537C125.495 71.5537 124.271 72.7803 124.271 74.2899C124.271 75.8024 125.495 77.029 127.002 77.029Z" fill="#FDB62E"/>
<path d="M133.306 78.3845C133.325 77.7212 133.211 77.0579 132.972 76.4375C132.732 75.817 132.369 75.2538 131.907 74.7763C131.445 74.2988 130.891 73.9214 130.281 73.6612C129.67 73.4011 129.014 73.2695 128.349 73.2695C127.687 73.2695 127.03 73.4011 126.417 73.6612C125.806 73.9186 125.252 74.2988 124.79 74.7763C124.328 75.2538 123.965 75.8199 123.726 76.4375C123.486 77.0579 123.372 77.7183 123.392 78.3845L129.961 117.706C130.118 118.641 130.6 119.487 131.322 120.102C132.044 120.714 132.957 121.049 133.905 121.049H137.321L133.306 78.3845Z" fill="#F15A59"/>
<path d="M168.046 73.4238C167.395 73.4238 166.75 73.5496 166.151 73.7984C165.552 74.0471 165.004 74.4131 164.544 74.8734C164.085 75.3337 163.72 75.8798 163.469 76.4831C163.22 77.0835 163.092 77.7297 163.089 78.3816H173C173 77.0664 172.478 75.8026 171.547 74.8734C170.62 73.9471 169.361 73.4238 168.046 73.4238Z" fill="#F15A59"/>
<path d="M163.075 78.3837L159.071 121.045H162.487C163.432 121.045 164.348 120.71 165.07 120.099C165.792 119.487 166.274 118.638 166.428 117.703L172.997 78.3809H163.075V78.3837Z" fill="#F15A59"/>
<path d="M148.19 73.4238C146.878 73.4238 145.616 73.9471 144.689 74.8763C143.758 75.8055 143.236 77.0692 143.233 78.3844L144.298 121.046H152.077L153.15 78.3844C153.147 77.0692 152.625 75.8055 151.694 74.8763C150.764 73.9471 149.503 73.4238 148.19 73.4238Z" fill="#F15A59"/>
<path d="M138.262 73.4238C136.95 73.4238 135.688 73.9471 134.761 74.8763C133.831 75.8055 133.309 77.0692 133.306 78.3844L137.306 121.046H144.284L143.219 78.3844C143.219 77.7325 143.091 77.0864 142.84 76.486C142.591 75.8827 142.226 75.3366 141.764 74.8763C141.304 74.416 140.757 74.05 140.157 73.8012C139.558 73.5496 138.913 73.4238 138.262 73.4238Z" fill="#EADACC"/>
<path d="M163.075 78.3842C163.075 77.0662 162.553 75.8024 161.622 74.8703C160.692 73.9383 159.431 73.415 158.118 73.415C156.803 73.415 155.541 73.9383 154.611 74.8703C153.681 75.8024 153.158 77.0662 153.158 78.3842L152.094 121.045H159.083L163.075 78.3842Z" fill="#EADACC"/>
<path d="M132.264 91.3818H163.885C164.025 91.3818 164.162 91.4104 164.288 91.4676C164.413 91.5248 164.527 91.6077 164.622 91.7106C164.716 91.8136 164.787 91.9365 164.83 92.068C164.873 92.1996 164.89 92.3397 164.876 92.4798L163.532 106.129C163.509 106.375 163.395 106.604 163.212 106.77C163.029 106.936 162.792 107.027 162.547 107.027H133.608C133.36 107.027 133.123 106.936 132.94 106.77C132.758 106.604 132.644 106.375 132.618 106.129L131.277 92.4798C131.262 92.3425 131.28 92.2024 131.322 92.0709C131.365 91.9394 131.436 91.8164 131.528 91.7135C131.622 91.6106 131.733 91.5277 131.862 91.4705C131.987 91.4104 132.124 91.3818 132.264 91.3818Z" fill="#F9F1EB"/>
<path d="M134.019 118.178C133.562 117.601 132.926 117.195 132.213 117.023C131.499 116.851 130.749 116.926 130.081 117.232C129.413 117.538 128.868 118.061 128.534 118.716C128.197 119.37 128.089 120.119 128.229 120.84C128.109 120.906 127.992 120.98 127.884 121.066C127.518 121.343 127.213 121.698 126.99 122.098C126.768 122.501 126.631 122.947 126.591 123.407C126.551 123.868 126.605 124.331 126.753 124.766C126.902 125.203 127.142 125.603 127.453 125.941C127.764 126.278 128.143 126.547 128.566 126.73C128.988 126.913 129.444 127.004 129.904 126.999C130.363 126.993 130.817 126.893 131.237 126.701C131.653 126.51 132.027 126.232 132.332 125.886C132.732 126.046 133.16 126.126 133.591 126.121C134.022 126.115 134.447 126.024 134.844 125.855C135.24 125.686 135.597 125.437 135.897 125.129C136.196 124.82 136.433 124.454 136.593 124.054C136.753 123.653 136.833 123.224 136.827 122.793C136.821 122.361 136.73 121.935 136.562 121.538C136.39 121.14 136.145 120.783 135.837 120.48C135.529 120.179 135.163 119.942 134.764 119.782L134.695 119.751C134.61 119.179 134.376 118.633 134.019 118.178Z" fill="#FDB62E"/>
</svg>
