<svg width="164" height="104" viewBox="0 0 164 104" fill="none" xmlns="http://www.w3.org/2000/svg">
<path d="M7.26607 0H142.671C146.713 0 149.937 3.2776 149.937 7.26607V88.7339C149.937 92.7767 146.659 96 142.671 96H7.26607C3.22333 96 0 92.7224 0 88.7339V7.26607C0 3.28031 3.2776 0 7.26607 0Z" fill="#C6C6E3"/>
<path d="M7.81403 4.20605H142.179C143.824 4.20605 145.183 5.51926 145.183 7.20962V78.0768C145.183 79.7211 143.87 81.0234 142.179 81.0234H7.81403C6.16981 81.0234 4.86745 79.7102 4.86745 78.0768V7.22047C4.81047 5.57624 6.16981 4.20605 7.81403 4.20605Z" fill="#E8E9F5"/>
<path d="M74.3075 92.5614C76.5088 92.5614 78.2933 90.7769 78.2933 88.5756C78.2933 86.3743 76.5088 84.5898 74.3075 84.5898C72.1063 84.5898 70.3218 86.3743 70.3218 88.5756C70.3218 90.7769 72.1063 92.5614 74.3075 92.5614Z" fill="#DCDEF3"/>
<path d="M24.4789 13.5H124.096V73.3894C124.096 74.4286 123.274 75.2507 122.234 75.2507H26.3402C25.301 75.2507 24.4789 74.4286 24.4789 73.3894C24.4789 73.4356 24.4789 13.5 24.4789 13.5Z" fill="white"/>
<path d="M95.5089 17.8174H118.675C119.326 17.8174 119.817 18.3085 119.817 18.9597V69.8845C119.817 70.5357 119.326 71.0268 118.675 71.0268H95.5089C94.8577 71.0268 94.3666 70.5357 94.3666 69.8845V18.9624C94.3639 18.3112 94.855 17.8174 95.5089 17.8174Z" fill="#E7E7F4"/>
<path d="M29.8835 17.8174H88.9508C89.602 17.8174 90.0931 18.3085 90.0931 18.9597V69.8845C90.0931 70.5357 89.602 71.0268 88.9508 71.0268H29.8835C29.2323 71.0268 28.7412 70.5357 28.7412 69.8845V18.9624C28.7412 18.3112 29.2893 17.8174 29.8835 17.8174Z" fill="#EADACC"/>
<path d="M98.9004 26.7207H106.932C107.366 26.7207 107.754 27.0978 107.754 27.5428C107.754 27.9769 107.377 28.3649 106.932 28.3649H98.9004C98.4662 28.3649 98.0782 27.9878 98.0782 27.5428C98.0782 27.106 98.4065 26.7207 98.9004 26.7207Z" fill="#C6C6E3"/>
<path d="M98.9004 30.1689H115.348C115.782 30.1689 116.17 30.5461 116.17 30.9911C116.17 31.4252 115.793 31.8132 115.348 31.8132H98.9004C98.4662 31.8132 98.0782 31.436 98.0782 30.9911C98.0782 30.4891 98.4065 30.1689 98.9004 30.1689Z" fill="#C6C6E3"/>
<path d="M98.9004 45.2471H115.348C115.782 45.2471 116.17 45.6242 116.17 46.0692C116.17 46.5033 115.793 46.8913 115.348 46.8913H98.9004C98.4662 46.8913 98.0782 46.5142 98.0782 46.0692C98.0782 45.5781 98.4065 45.2471 98.9004 45.2471Z" fill="#C6C6E3"/>
<path d="M98.9004 41.8057H111.145C111.579 41.8057 111.967 42.1828 111.967 42.6278C111.967 43.0619 111.59 43.4499 111.145 43.4499H98.9004C98.4662 43.4499 98.0782 43.0727 98.0782 42.6278C98.0782 42.1855 98.4065 41.8057 98.9004 41.8057Z" fill="#C6C6E3"/>
<path d="M98.9004 61.0322H115.348C115.782 61.0322 116.17 61.4094 116.17 61.8543C116.17 62.2885 115.793 62.6765 115.348 62.6765H98.9004C98.4662 62.6765 98.0782 62.2993 98.0782 61.8543C98.0782 61.4202 98.4065 61.0322 98.9004 61.0322Z" fill="#C6C6E3"/>
<path d="M98.9004 57.5957H106.932C107.366 57.5957 107.754 57.9728 107.754 58.4178C107.754 58.8519 107.377 59.2399 106.932 59.2399H98.9004C98.4662 59.2399 98.0782 58.8628 98.0782 58.4178C98.0782 57.9837 98.4065 57.5957 98.9004 57.5957Z" fill="#C6C6E3"/>
<path d="M98.9004 64.9326H115.348C115.782 64.9326 116.17 65.1931 116.17 65.4997C116.17 65.8009 115.793 66.0668 115.348 66.0668H98.9004C98.4662 66.0668 98.0782 65.8063 98.0782 65.4997C98.0782 65.2012 98.4065 64.9326 98.9004 64.9326Z" fill="#C6C6E3"/>
<path d="M100.317 52.1797C101.435 52.1797 102.338 53.0859 102.338 54.2011C102.338 55.3189 101.432 56.2224 100.317 56.2224C99.1989 56.2224 98.2954 55.3162 98.2954 54.2011C98.2954 53.0832 99.1989 52.1797 100.317 52.1797Z" fill="#5358A6"/>
<path d="M100.317 21.3154C101.435 21.3154 102.338 22.2217 102.338 23.3368C102.338 24.4547 101.432 25.3582 100.317 25.3582C99.1989 25.3582 98.2954 24.4519 98.2954 23.3368C98.2954 22.2189 99.1989 21.3154 100.317 21.3154Z" fill="#5358A6"/>
<path d="M100.317 36.3369C101.435 36.3369 102.338 37.2431 102.338 38.3583C102.338 39.4734 101.432 40.3796 100.317 40.3796C99.1989 40.3796 98.2954 39.4734 98.2954 38.3583C98.2954 37.2431 99.1989 36.3369 100.317 36.3369Z" fill="#F37982"/>
<mask id="mask0" mask-type="alpha" maskUnits="userSpaceOnUse" x="28" y="17" width="62" height="55">
<path d="M29.7831 17.9541H88.8505C89.5016 17.9541 89.9927 18.4452 89.9927 19.0964V70.0212C89.9927 70.6724 89.5016 71.1635 88.8505 71.1635H29.7831C29.132 71.1635 28.6409 70.6724 28.6409 70.0212V19.0991C28.6409 18.4479 29.1889 17.9541 29.7831 17.9541Z" fill="#EADACC"/>
</mask>
<g mask="url(#mask0)">
<path d="M42.0712 60.5417C39.0676 65.8407 37.2063 71.2563 37.0463 77.3693C36.8862 83.1051 38.1424 88.792 43.1673 92.2297C46.5019 94.5251 49.8853 89.2831 46.5589 86.985C43.2813 84.6896 43.1212 80.267 43.3383 76.5444C43.6123 71.9536 45.0286 67.9082 47.324 63.9224C49.2803 60.4386 44.0925 57.0471 42.0712 60.5417Z" fill="#FAB58A"/>
<path d="M67.8634 63.4984C70.6499 67.107 72.6712 70.8784 73.5992 75.4122C74.3643 79.2379 74.6383 82.8465 71.4638 85.6818C68.5173 88.4114 72.6061 93.1161 75.5635 90.3785C77.5279 88.6311 79.0012 86.3357 79.8233 83.8206C80.6455 80.9771 80.4284 78.1906 79.9373 75.2983C78.8981 69.2342 76.3287 64.1495 72.5573 59.3417C70.1018 56.2242 65.3509 60.3239 67.8634 63.4984Z" fill="#FAB58A"/>
<path d="M75.2976 58.2458C75.2976 58.2458 72.1339 35.8914 71.0921 31.8026C69.4478 25.5187 64.971 21.75 58.6301 21.75C52.1862 21.75 47.6985 25.5757 45.9511 31.8595C44.1468 38.3035 41.7456 57.7547 41.7456 57.7547C41.4716 58.6338 41.9057 59.5591 42.7848 59.8331C44.8062 60.5982 49.0687 61.9684 58.6274 61.8545C67.1497 61.7405 71.5804 60.5982 73.7619 60.3812C74.6871 60.3242 75.4061 59.5021 75.3491 58.5769C75.3464 58.4738 75.3464 58.3598 75.2976 58.2458Z" fill="#F15A59"/>
<path d="M55.1272 43.7734H62.0704V55.6303C62.0704 56.6125 61.2483 57.4346 60.2661 57.4346H56.9315C55.9493 57.4346 55.1272 56.6125 55.1272 55.6303V43.7734Z" fill="#FAB58A"/>
<path d="M66.7713 42.9576C71.2724 38.4565 71.2724 31.1588 66.7713 26.6577C62.2703 22.1566 54.9726 22.1566 50.4715 26.6577C45.9704 31.1588 45.9704 38.4565 50.4715 42.9576C54.9726 47.4586 62.2703 47.4586 66.7713 42.9576Z" fill="#FAB58A"/>
<path d="M46.8792 34.3703C46.8792 34.5304 46.8791 34.7475 46.9361 34.9184V34.9754C46.9361 35.1924 46.9931 35.3525 47.0501 35.5804C47.1071 35.7975 47.1071 36.0145 47.164 36.2316C47.9862 33.011 50.8758 30.7129 54.213 30.7129C54.6472 30.7129 55.0352 30.7698 55.4693 30.8268C55.8003 30.8838 56.0743 30.9408 56.3945 30.9408C58.5298 30.9408 60.2771 29.3535 60.5512 27.2291C60.4942 27.4461 60.4942 27.6632 60.4942 27.8802C60.4942 30.3357 62.4586 32.3028 64.9168 32.3028C67.2692 32.7939 69.2336 34.5413 69.9417 36.8367C70.1018 36.3456 70.2158 35.7975 70.2727 35.2494V35.1924C70.3297 34.9754 70.3297 34.7583 70.3297 34.5413V34.3812C70.3297 34.1071 70.3297 33.8901 70.3297 33.616C70.3297 33.342 70.3297 33.1819 70.3297 32.9649C70.3297 32.9079 70.3297 32.8509 70.3297 32.8048C70.3297 32.6447 70.3297 32.4738 70.2727 32.3707C70.2158 32.2567 70.2727 32.2567 70.2158 32.1536C70.1588 32.0396 70.1588 31.8796 70.1588 31.7195L70.1018 31.5024C70.0448 31.3423 70.0448 31.2284 69.9879 31.0683C69.9309 30.9082 69.9309 30.9543 69.9309 30.9082L69.8169 30.4741C69.8169 30.4171 69.7599 30.3601 69.7599 30.314C69.703 30.1539 69.646 29.983 69.5999 29.8799C69.5999 29.8229 69.5999 29.8229 69.5429 29.7659C69.4859 29.6059 69.4289 29.4349 69.3828 29.2748V29.2179C69.3258 29.0578 69.2227 28.8407 69.1657 28.6698C68.1266 26.5345 66.4932 24.7383 64.4691 23.5309C63.8179 23.1538 63.1559 22.8228 62.4477 22.6057H62.3908C62.1737 22.5487 61.9566 22.4917 61.7857 22.3886H61.6718C61.1807 22.2747 60.7465 22.1716 60.2554 22.1146H60.0954L59.5473 22.0576H59.3302C59.1132 22.0576 58.8391 22.0576 58.6221 22.0576C52.1211 22.0576 46.8792 27.3023 46.8792 33.8005C46.8792 34.0176 46.8792 34.2347 46.8792 34.4517C46.8792 34.3133 46.8792 34.3703 46.8792 34.3703Z" fill="#F15A59"/>
<path d="M69.8277 53.9363C67.4292 52.6231 64.8028 51.744 62.0705 51.3669C61.6364 53.2743 60.6542 54.3135 58.4619 54.3135C56.2696 54.3135 55.5153 53.2173 55.1273 51.2529C54.6932 51.2529 53.323 51.527 52.992 51.6301C49.0062 52.3952 47.419 53.4344 45.4519 54.9077C42.3914 57.2031 39.3878 61.9567 38.7339 63.0528C38.6199 63.1668 38.6199 63.3838 38.7339 63.4869C39.4421 64.6292 40.3781 65.6223 41.4634 66.3874C42.8336 67.2665 44.2499 67.9177 45.7802 68.4088C45.7802 68.4088 46.7054 66.6614 47.0364 66.0103C47.4136 65.1312 48.4066 62.1846 48.4066 62.1846C47.8585 63.4408 47.5275 64.811 47.4244 66.1703C47.3674 68.0316 48.0295 70.1018 47.9725 71.3581C47.8124 73.5395 47.3674 75.6748 46.7163 77.7532C46.6593 78.0272 46.7732 78.2443 47.0473 78.3582C50.5419 79.1803 54.1533 79.6714 57.7619 79.7284C61.6445 79.7284 65.5191 79.4544 69.3447 78.8493C69.6188 78.7924 69.7788 78.5753 69.7219 78.3013C69.7219 78.3013 69.7219 78.3013 69.7219 78.2443C69.2308 76.1659 68.8428 74.0876 68.6827 72.0174C68.3517 69.1739 68.6827 68.6258 68.6827 66.5556C68.5687 65.0823 68.3517 63.5521 68.0776 62.0761L68.6827 67.763C70.43 67.706 72.1774 67.3289 73.7646 66.5638C74.8608 65.9587 75.786 65.2506 76.6651 64.3823C76.8251 64.2222 76.8821 64.0052 76.779 63.7773C76.0546 62.1846 72.6712 55.6294 69.8277 53.9363Z" fill="#8989C3"/>
<path d="M58.6219 46.3432C57.4226 46.3432 56.2695 46.1831 55.1272 45.7951V47.9305C56.2695 48.2615 57.4796 48.3076 58.6219 48.1475C59.8211 48.0336 60.9742 47.7704 62.0595 47.2223V45.749C60.977 46.1153 59.775 46.3432 58.6219 46.3432Z" fill="#E4996E"/>
<path d="M68.1943 62.0244C68.1943 62.0244 68.6285 64.5369 68.6854 65.7931C68.6854 66.5582 68.6854 67.7575 68.6854 67.7575C68.6854 67.7575 69.2335 67.7575 69.5645 67.7005C69.8955 67.6435 70.1696 67.5866 70.1696 67.5866C70.1696 67.5866 69.8386 66.4443 69.4614 65.3481C69.1196 64.3117 68.1943 62.0244 68.1943 62.0244Z" fill="#5358A6"/>
<path d="M48.5722 61.8535C48.5722 61.8535 47.9672 63.6008 47.6932 64.754C47.5792 65.359 47.5331 65.9532 47.5331 66.5583C47.4761 66.8893 47.099 67.9285 46.928 68.3626C46.871 68.5227 46.711 68.5796 46.597 68.5796C46.3799 68.5227 45.992 68.4657 45.7179 68.3626C45.2838 68.2025 44.9528 68.0886 45.0667 68.1455C45.1807 68.2025 46.0489 66.7753 46.711 65.6331C47.2102 64.5858 48.5722 61.8535 48.5722 61.8535Z" fill="#5358A6"/>
</g>
<path d="M26.058 9.22949H122.557C123.436 9.22949 124.144 9.93765 124.144 10.8167V13.4893H24.4789V10.8167C24.4789 9.9485 25.187 9.22949 26.058 9.22949Z" fill="#8989C3"/>
<path d="M144.842 103.116H137.528C132.534 103.116 128.449 99.2218 128.171 94.2756L127.002 72.7322C126.961 71.9446 127.553 71.2786 128.299 71.2373C128.341 71.2373 128.382 71.2373 128.382 71.2373H153.893C154.681 71.2373 155.308 71.8688 155.308 72.6518C155.308 72.6931 155.308 72.6931 155.308 72.7345L154.125 94.271C153.921 99.2218 149.797 103.116 144.842 103.116Z" fill="#F15A59"/>
<path d="M155.104 76.1133L154.906 79.4153C158.481 80.1639 160.764 83.6634 160.018 87.2386C159.427 90.1067 157.028 92.233 154.119 92.4649L153.921 95.7669C159.386 95.5695 163.632 90.9678 163.437 85.5463C163.281 80.7885 159.781 76.8596 155.104 76.1133Z" fill="#F15A59"/>
<path d="M142.736 68.5958C142.736 68.5958 137.489 63.3845 137.7 58.7421C138.034 51.6541 144.256 48.94 141.901 42.2387C140.767 39.0576 134.996 31 134.996 31C134.996 31 143.834 36.6146 146.567 41.4202C149.044 45.804 148.754 52.7237 146.066 56.0304C140.185 63.2966 142.736 68.5958 142.736 68.5958Z" fill="#BCBCE4"/>
<path d="M142.546 68.4175C142.546 68.4175 136.293 62.6401 136.491 58.3943C136.803 51.912 142.622 49.4297 140.419 43.301C139.359 40.3917 134.996 31 134.996 31C134.996 31 142.227 38.1574 144.782 42.5525C147.099 46.5617 146.828 52.8902 144.314 55.9144C138.814 62.5597 142.546 68.4175 142.546 68.4175Z" fill="white"/>
</svg>
