<svg width="32" height="34" viewBox="0 0 32 34" fill="none" xmlns="http://www.w3.org/2000/svg">
<path opacity="0.4" d="M28.8525 12.2036V11.528C28.9032 10.3289 28.6667 9.12979 28.1432 8.03201C27.6534 7.12001 26.8765 6.3938 25.9138 5.98846C25.1538 5.66757 24.36 5.4649 23.5325 5.39734V2.99912C24.3432 3.06667 25.1538 3.23556 25.9307 3.472V3.45512C25.9814 3.47201 26.032 3.4889 26.0658 3.50579C26.1334 3.52268 26.184 3.55644 26.2516 3.57333C26.4205 3.624 26.5725 3.69156 26.7414 3.75911C26.8427 3.79289 26.9271 3.84357 26.9947 3.87735C27.1298 3.92801 27.2481 3.99555 27.3494 4.04622C27.4507 4.09689 27.5521 4.16445 27.6534 4.21512C27.7378 4.26579 27.8054 4.31645 27.8898 4.36711C28.3289 4.65423 28.7343 4.97512 29.1058 5.34667L29.1227 5.36355C29.2578 5.49867 29.393 5.65068 29.5112 5.80268V5.81956C30.6934 7.47468 31.2845 9.48445 31.1832 11.5111V12.1529H28.8525V12.2036ZM0.816887 12.2036V11.5618C0.715554 9.53512 1.30665 7.52534 2.48887 5.87023L2.50578 5.85335C2.624 5.70135 2.75912 5.56622 2.87734 5.41422L2.89422 5.39734C3.24889 5.02578 3.65421 4.688 4.09332 4.41778C4.17776 4.36711 4.26222 4.31645 4.34667 4.26578L4.63378 4.09688C4.752 4.04622 4.87023 3.97868 4.98845 3.92801C5.0729 3.89423 5.15733 3.84355 5.24178 3.80978C5.41067 3.74222 5.57956 3.67466 5.74845 3.624C5.79912 3.59022 5.86667 3.57334 5.93423 3.55645C5.96801 3.52267 6.01867 3.50577 6.08622 3.48888C6.86311 3.25244 7.65688 3.08355 8.46754 3.01599V2.99912L8.50135 3.01599V5.41422H8.48445C7.65689 5.48178 6.84624 5.68444 6.06934 6.02222C4.04267 6.93422 3.14754 8.70757 3.14754 11.5449V12.1867H0.816887V12.2036ZM10.8489 5.3298V2.91467H21.2187V5.3298H10.8489Z" fill="url(#paint0_radial)"/>
<path d="M23.6169 1.32716V6.64719C23.6169 7.32275 23.0764 7.8632 22.4009 7.8632C21.7253 7.8632 21.1849 7.32275 21.1849 6.64719V1.34407C21.1849 0.668513 21.7254 0.128049 22.384 0.11116C23.0596 0.11116 23.6 0.651608 23.6169 1.32716Z" fill="url(#paint1_radial)"/>
<path d="M10.8489 1.34407V6.64719C10.8489 7.32275 10.3084 7.8632 9.63287 7.8632C8.95732 7.8632 8.41687 7.32275 8.41687 6.64719V1.34407C8.41687 0.668513 8.95732 0.128065 9.63287 0.128065C10.3084 0.128065 10.8489 0.668513 10.8489 1.34407Z" fill="url(#paint2_radial)"/>
<path d="M21.6916 33.889H10.2916C3.99198 33.889 0.799957 31.001 0.799957 25.2925V12.2036H31.2001V25.2925C31.2169 31.001 28.008 33.889 21.6916 33.889ZM22.9413 24.1778C22.1645 24.1947 21.5395 24.8365 21.5564 25.6134C21.5564 26.3903 22.1814 27.0321 22.9582 27.049C23.752 27.049 24.3938 26.4072 24.3938 25.6134C24.3938 24.8196 23.752 24.1778 22.9413 24.1778ZM16.0169 24.1609C15.24 24.1947 14.6151 24.8365 14.632 25.6134C14.6658 26.3903 15.3076 26.9814 16.0844 26.9645C16.8613 26.9307 17.4524 26.289 17.4355 25.5121C17.3849 24.7521 16.76 24.1609 16.0169 24.1609ZM9.05864 24.1609C8.68709 24.1609 8.33244 24.313 8.07911 24.5663C7.80888 24.8365 7.65685 25.2081 7.67374 25.5965C7.70752 26.3734 8.34932 26.9645 9.12621 26.9307C9.9031 26.8969 10.4942 26.2552 10.4605 25.4783C10.4267 24.7521 9.81864 24.1609 9.05864 24.1609ZM22.9751 18.0472C22.1982 18.0472 21.5734 18.6889 21.5902 19.4489C21.5902 19.4658 21.5902 19.4658 21.5902 19.4827C21.6071 20.2427 22.2489 20.8507 23.0258 20.8338C23.8027 20.8169 24.3938 20.1751 24.3769 19.3983C24.3431 18.6382 23.7182 18.0472 22.9751 18.0472ZM16.0169 18.0303C15.24 18.064 14.6151 18.7058 14.632 19.4827C14.6658 20.2596 15.3076 20.8507 16.0844 20.8338C16.8613 20.8 17.4524 20.1583 17.4355 19.3814C17.3849 18.6214 16.76 18.0303 16.0169 18.0303ZM9.05864 18.0303C8.26486 18.064 7.63998 18.7396 7.69064 19.5503C7.72442 20.2934 8.31553 20.8845 9.05864 20.9183C9.4302 20.9183 9.78489 20.7663 10.0382 20.5129C10.3085 20.2427 10.4604 19.8543 10.4435 19.4658C10.4604 18.6889 9.85242 18.0471 9.05864 18.0303Z" fill="url(#paint3_radial)"/>
<defs>
<radialGradient id="paint0_radial" cx="0" cy="0" r="1" gradientUnits="userSpaceOnUse" gradientTransform="translate(16.6964 2.9081) rotate(90) scale(9.28891 45.5706)">
<stop stop-color="#3CB9FF"/>
<stop offset="1" stop-color="#0011A8"/>
</radialGradient>
<radialGradient id="paint1_radial" cx="0" cy="0" r="1" gradientUnits="userSpaceOnUse" gradientTransform="translate(22.4566 0.105684) rotate(90) scale(7.75204 3.64703)">
<stop stop-color="#3CB9FF"/>
<stop offset="1" stop-color="#0011A8"/>
</radialGradient>
<radialGradient id="paint2_radial" cx="0" cy="0" r="1" gradientUnits="userSpaceOnUse" gradientTransform="translate(9.68861 0.122601) rotate(90) scale(7.73513 3.64702)">
<stop stop-color="#3CB9FF"/>
<stop offset="1" stop-color="#0011A8"/>
</radialGradient>
<radialGradient id="paint3_radial" cx="0" cy="0" r="1" gradientUnits="userSpaceOnUse" gradientTransform="translate(16.6967 12.1883) rotate(90) scale(21.6854 45.5879)">
<stop stop-color="#3CB9FF"/>
<stop offset="1" stop-color="#0011A8"/>
</radialGradient>
</defs>
</svg>
