<svg width="28" height="28" viewBox="0 0 28 28" fill="none" xmlns="http://www.w3.org/2000/svg">
<path d="M27.5372 3.18959C27.5372 3.18959 28.5785 1.50414 27.5372 0.462812C26.4958 -0.578515 24.8104 0.462812 24.8104 0.462812L14 11.2732L3.18963 0.462812C3.18963 0.462812 1.50428 -0.578511 0.462854 0.462812C-0.578567 1.50414 0.462854 3.18959 0.462854 3.18959L11.2733 14L0.462854 24.8104C0.462854 24.8104 -0.578468 26.4959 0.462854 27.5372C1.50418 28.5785 3.18963 27.5372 3.18963 27.5372L14 16.7268L24.8104 27.5372C24.8104 27.5372 26.4959 28.5784 27.5372 27.5371C28.5785 26.4958 27.5372 24.8104 27.5372 24.8104L16.7268 14L27.5372 3.18959Z" fill="#0011A8"/>
</svg>
