<svg width="32" height="32" viewBox="0 0 32 32" fill="none" xmlns="http://www.w3.org/2000/svg">
<path d="M32 16C32 7.16411 24.8359 0 16 0C7.16411 0 0 7.16411 0 16C0 23.9854 5.85009 30.605 13.5002 31.8065V20.6261H9.43665V16H13.5002V12.4742C13.5002 8.46463 15.8897 6.24835 19.5438 6.24835C21.2943 6.24835 23.1259 6.5611 23.1259 6.5611V10.4987H21.1076C19.1208 10.4987 18.4998 11.7317 18.4998 12.9985V16H22.9369L22.2281 20.6261H18.4998V31.8065C26.1499 30.6072 32 23.9876 32 16Z" fill="#1977F3"/>
<path d="M22.2282 20.6258L22.937 15.9997H18.4999V12.9982C18.4999 11.7336 19.1187 10.4984 21.1077 10.4984H23.126V6.5608C23.126 6.5608 21.2945 6.24805 19.5439 6.24805C15.8899 6.24805 13.5003 8.46208 13.5003 12.4739V15.9997H9.43677V20.6258H13.5003V31.8062C14.3148 31.9345 15.1496 31.9997 16.0001 31.9997C16.8506 31.9997 17.6854 31.9322 18.4999 31.8062V20.6258H22.2282Z" fill="#FEFEFE"/>
</svg>
