<svg width="32" height="32" viewBox="0 0 32 32" fill="none" xmlns="http://www.w3.org/2000/svg">
<path d="M16 32C24.84 32 32 24.84 32 16C32 7.16 24.84 0 16 0C7.16 0 0 7.16 0 16C0 24.84 7.16 32 16 32Z" fill="url(#paint0_radial)"/>
<path d="M16.0001 5.6202C11.7501 5.6202 7.71006 5.2402 6.17006 9.2002C5.53006 10.8302 5.63006 12.9602 5.63006 16.0002C5.63006 18.6702 5.54006 21.1702 6.17006 22.7902C7.71006 26.7502 11.7801 26.3702 16.0001 26.3702C20.0701 26.3702 24.2701 26.7902 25.8301 22.7902C26.4701 21.1402 26.3701 19.0502 26.3701 16.0002C26.3701 11.9502 26.5901 9.3302 24.6301 7.3702C22.6401 5.3802 19.9501 5.6202 16.0001 5.6202ZM15.0701 7.4902C23.9401 7.4802 25.0601 6.4902 24.4401 20.1802C24.2201 25.0202 20.5301 24.4902 16.0001 24.4902C7.74006 24.4902 7.50006 24.2502 7.50006 15.9902C7.50006 7.6302 8.15006 7.5002 15.0701 7.4902ZM21.5401 9.2202C20.8501 9.2202 20.3001 9.7802 20.3001 10.4602C20.3001 11.1502 20.8601 11.7002 21.5401 11.7002C22.2301 11.7002 22.7801 11.1402 22.7801 10.4602C22.7801 9.7702 22.2201 9.2202 21.5401 9.2202ZM16.0001 10.6702C13.0601 10.6702 10.6701 13.0602 10.6701 16.0002C10.6701 18.9402 13.0501 21.3302 16.0001 21.3302C18.9501 21.3302 21.3301 18.9502 21.3301 16.0002C21.3301 13.0502 18.9401 10.6702 16.0001 10.6702ZM16.0001 12.5402C20.5701 12.5402 20.5801 19.4602 16.0001 19.4602C11.4301 19.4602 11.4201 12.5402 16.0001 12.5402Z" fill="white"/>
<defs>
<radialGradient id="paint0_radial" cx="0" cy="0" r="1" gradientUnits="userSpaceOnUse" gradientTransform="translate(7.304 26.5732) rotate(180) scale(29.7768)">
<stop stop-color="#FFDD55"/>
<stop offset="0.5" stop-color="#FF543E"/>
<stop offset="1" stop-color="#B41E8E"/>
</radialGradient>
</defs>
</svg>
