<svg width="61" height="32" viewBox="0 0 61 32" fill="none" xmlns="http://www.w3.org/2000/svg">
<path d="M16 32C24.8366 32 32 24.8366 32 16C32 7.16344 24.8366 0 16 0C7.16344 0 0 7.16344 0 16C0 24.8366 7.16344 32 16 32Z" fill="url(#paint0_linear)"/>
<path d="M8.81916 22.035C8.60225 21.8822 8.43429 21.6698 8.33561 21.4235C8.13458 21.0615 8.0838 20.6351 8.1942 20.236C8.3046 19.837 8.56735 19.4973 8.92583 19.2901C10.1838 18.5098 11.5301 17.882 12.9365 17.4199C15.0698 16.6021 16.3498 16.147 16.7338 16.0617L11.5641 13.2172C8.71961 11.6244 7.29738 10.5719 7.29738 10.0457C7.28905 9.69913 7.38304 9.35779 7.56761 9.06435C7.85223 8.71888 8.22247 8.45407 8.64139 8.29635C9.79906 7.87309 10.9878 7.54024 12.1969 7.3008C14.0458 6.88361 15.9113 6.50672 17.7934 6.17013C19.6778 5.8288 20.8441 5.60835 21.2849 5.50168C21.5765 5.43057 21.8183 5.36657 21.9961 5.30257C22.4283 5.1422 22.8805 5.04171 23.3401 5.00391C23.7174 5.01865 24.0743 5.17926 24.3356 5.45191C24.4864 5.58439 24.6075 5.7473 24.6908 5.92992C24.7742 6.11254 24.8179 6.31073 24.8192 6.51146C24.8192 7.22257 24.2289 7.76302 23.0556 8.05457C22.2389 8.2811 21.4072 8.44982 20.5667 8.55946L18.6041 8.85813C17.9427 8.95057 17.2387 9.07146 16.4707 9.2208C15.7027 9.37013 15.0058 9.49813 14.4512 9.59057C13.4089 9.73006 12.3759 9.9319 11.3578 10.195C13.6618 11.6172 15.2405 12.5986 16.0796 13.0395C16.9187 13.4804 18.3267 14.1986 20.2965 15.1159C20.514 15.2466 20.695 15.43 20.8227 15.6492C20.9778 15.8675 21.0622 16.1281 21.0645 16.3959C21.0602 16.5729 21.0084 16.7454 20.9145 16.8955C20.8207 17.0456 20.6883 17.1678 20.5312 17.2492C19.6869 17.697 18.8096 18.0797 17.9072 18.3941C17.8005 18.4279 17.696 18.4683 17.5943 18.515L15.1054 19.4537C13.9413 19.8346 12.8015 20.2858 11.6921 20.8048C15.6802 22.9648 20.053 24.3225 24.5632 24.8012C24.7066 24.7974 24.8483 24.8324 24.9735 24.9025C25.0987 24.9726 25.2026 25.0752 25.2743 25.1995C25.4526 25.4743 25.5442 25.7964 25.5374 26.1239C25.5558 26.3186 25.5243 26.5147 25.4459 26.6939C25.3675 26.873 25.2448 27.0293 25.0894 27.1479C24.7929 27.3462 24.4434 27.4503 24.0867 27.4466C22.856 27.373 21.6373 27.1631 20.4529 26.8208C18.6211 26.3394 16.8286 25.719 15.0912 24.9648L14.2947 24.6235C14.0672 24.5381 12.7587 23.9124 10.3623 22.7532C9.62983 22.3977 9.11783 22.1559 8.81916 22.035Z" fill="white"/>
<path d="M55.0659 22.6288V13.6708H57.1163V15.6859C57.7526 14.1587 58.8061 13.4304 60.2908 13.4941V15.6646H60.1706C59.2444 15.6646 58.5021 15.9687 57.9506 16.5696C57.392 17.1777 57.1163 18.0544 57.1163 19.2068V22.6147H55.0659V22.6288Z" fill="#0011A8"/>
<path d="M50.0249 12.2903V10.3389H52.2308V12.2903H50.0249ZM50.1097 22.627V13.669H52.1601V22.627H50.1097Z" fill="#0011A8"/>
<path d="M35.1775 22.6886V10.8105H37.3976L41.0105 16.4243L44.6304 10.8105H46.8505V22.6886H44.7648V14.1689L41.0175 19.7686H40.9468L37.2279 14.2043V22.6886H35.1775Z" fill="#0011A8"/>
<defs>
<linearGradient id="paint0_linear" x1="2.15722" y1="2.15795" x2="28.2014" y2="28.2021" gradientUnits="userSpaceOnUse">
<stop stop-color="#3CB9FF"/>
<stop offset="1" stop-color="#0014C9"/>
</linearGradient>
</defs>
</svg>
