<svg width="32" height="32" viewBox="0 0 32 32" fill="none" xmlns="http://www.w3.org/2000/svg">
<path d="M16 0C7.16 0 0 7.16 0 16C0 24.84 7.16 32 16 32C24.84 32 32 24.84 32 16C32 7.16 24.83 0 16 0Z" fill="#40B3E0"/>
<path d="M24.02 9.20009L21.07 23.6101C21.07 23.6101 20.66 24.6101 19.52 24.1301L12.72 19.0701L10.25 17.9101L6.09001 16.5501C6.09001 16.5501 5.45001 16.3301 5.39001 15.8501C5.33001 15.3701 6.11001 15.1101 6.11001 15.1101L22.66 8.81009C22.66 8.82009 24.02 8.24009 24.02 9.20009Z" fill="white"/>
<path d="M12.21 23.4505C12.21 23.4505 12.01 23.4305 11.76 22.6705C11.51 21.9105 10.26 17.9105 10.26 17.9105L20.26 11.7605C20.26 11.7605 20.84 11.4205 20.82 11.7605C20.82 11.7605 20.92 11.8205 20.61 12.1005C20.3 12.3805 12.76 18.9505 12.76 18.9505" fill="#D1E4EF"/>
<path d="M15.34 21.0103L12.65 23.3903C12.65 23.3903 12.44 23.5403 12.21 23.4503L12.73 19.0303" fill="#B4CEE2"/>
</svg>
