<svg width="136" height="130" viewBox="0 0 136 130" fill="none" xmlns="http://www.w3.org/2000/svg">
<path d="M103.694 120.358L46.6142 115.364C45.0462 115.228 43.8823 113.883 44.0208 112.35L50.8496 38.734C50.9882 37.2121 52.3784 36.0824 53.9603 36.2169L111.041 41.213C112.609 41.3474 113.772 42.6967 113.634 44.2321L106.805 117.841C106.664 119.365 105.274 120.495 103.694 120.358Z" fill="#CDCDE7"/>
<path d="M89.2149 114.687L34.0838 129.893C32.5665 130.312 30.9846 129.455 30.5551 127.983L9.72934 56.8841C9.2998 55.4115 10.1843 53.8762 11.7015 53.4593L66.8327 38.2537C68.3499 37.8368 69.9318 38.6953 70.3614 40.1679L91.1871 111.267C91.619 112.726 90.7322 114.259 89.2149 114.687Z" fill="#D7D7EC"/>
<path d="M98.9396 104.973L42.1388 112.417C40.5707 112.632 39.1297 111.56 38.9265 110.034L28.7353 36.7924C28.5205 35.2705 29.6198 33.8718 31.1878 33.6746L87.9748 26.2243C89.5428 26.0158 90.9839 27.0827 91.1871 28.6068L101.381 101.853C101.595 103.37 100.508 104.776 98.9396 104.973Z" fill="#E7E7F4"/>
<path d="M46.5173 58.5157C49.7019 58.5157 52.2837 56.0099 52.2837 52.919C52.2837 49.8281 49.7019 47.3223 46.5173 47.3223C43.3327 47.3223 40.7509 49.8281 40.7509 52.919C40.7509 56.0121 43.3304 58.5157 46.5173 58.5157Z" fill="white"/>
<path d="M49.083 77.0118C52.2676 77.0118 54.8494 74.5059 54.8494 71.4151C54.8494 68.3242 52.2676 65.8184 49.083 65.8184C45.8984 65.8184 43.3165 68.3242 43.3165 71.4151C43.3165 74.5059 45.8984 77.0118 49.083 77.0118Z" fill="white"/>
<path d="M51.6624 95.5056C54.847 95.5056 57.4289 93.0043 57.4289 89.9112C57.4289 86.8203 54.847 84.3145 51.6624 84.3145C48.4779 84.3145 45.896 86.8203 45.896 89.9112C45.896 93.0043 48.4779 95.5056 51.6624 95.5056Z" fill="white"/>
<path d="M82.5778 47.1407L59.1841 50.2091C58.3873 50.3077 57.653 49.7675 57.5398 48.9943C57.4382 48.221 57.9947 47.5082 58.7915 47.3984L82.1852 44.33C82.982 44.2314 83.714 44.7715 83.8295 45.5448C83.945 46.3181 83.3768 47.042 82.5778 47.1407Z" fill="#D7D7EC"/>
<path d="M75.144 53.0694L59.8561 55.0687C59.0593 55.1673 58.3273 54.6271 58.2118 53.8539C58.1102 53.0806 58.6667 52.3678 59.4635 52.258L74.7514 50.2587C75.5481 50.1601 76.2802 50.7002 76.3956 51.4735C76.5088 52.2468 75.9407 52.9573 75.144 53.0694Z" fill="#D7D7EC"/>
<path d="M87.7391 84.1416L64.3454 87.2101C63.5487 87.3087 62.8166 86.7686 62.7012 85.9953C62.5996 85.222 63.1561 84.5115 63.9528 84.3994L87.3466 81.3309C88.1433 81.2323 88.8753 81.7725 88.9908 82.5458C89.0924 83.3191 88.5359 84.0318 87.7391 84.1416Z" fill="#D7D7EC"/>
<path d="M80.3032 90.0567L65.0152 92.0605C64.2185 92.1546 63.4864 91.6144 63.371 90.8434C63.2694 90.0724 63.8259 89.3529 64.6226 89.2498L79.9106 87.246C80.7073 87.1474 81.4394 87.6875 81.5548 88.4608C81.6564 89.2341 81.0999 89.9625 80.3032 90.0567Z" fill="#D7D7EC"/>
<path d="M85.1596 65.6348L61.7658 68.7033C60.9691 68.8019 60.2371 68.2617 60.1216 67.4884C60.02 66.7152 60.5765 66.0046 61.3733 65.8926L84.767 62.8241C85.5637 62.7255 86.2958 63.2657 86.4112 64.0389C86.5128 64.8257 85.954 65.5384 85.1596 65.6348Z" fill="#D7D7EC"/>
<path d="M77.7235 71.5625L62.4356 73.5618C61.6389 73.6605 60.9069 73.1203 60.7914 72.347C60.6898 71.5737 61.2463 70.8632 62.0431 70.7512L77.3309 68.7518C78.1277 68.6532 78.8597 69.1934 78.9752 69.9667C79.0768 70.7399 78.5203 71.4527 77.7235 71.5625Z" fill="#D7D7EC"/>
<path d="M49.5633 41.2747C48.3001 43.8276 47.187 46.4411 46.2125 49.1039C45.4296 48.1221 44.4412 47.3982 43.2149 47.3489C42.5822 47.3242 41.7854 47.4721 41.4437 48.0616C41.379 48.1602 41.3166 48.2701 41.2543 48.3687C40.8617 49.0187 40.7485 50.0632 41.5568 50.5159C42.1896 50.8723 42.7715 51.0695 43.2634 51.6075C43.9724 52.392 44.4781 53.3759 44.9192 54.3083C45.7021 55.9401 48.0807 55.559 48.4225 53.8533C49.2192 49.8637 50.2561 45.9256 51.4824 42.0457C51.8773 40.8197 50.1568 40.0823 49.5633 41.2747Z" fill="#5358A6"/>
<path d="M88.5706 2.06225L86.6608 0.392418C86.0165 -0.17241 85.005 -0.1231 84.423 0.502245L56.6184 30.4628L60.8792 34.1812L88.6976 4.22293C89.2796 3.59759 89.2288 2.62707 88.5706 2.06225Z" fill="#3D479D"/>
<path d="M60.8537 34.1792L56.593 30.4473L53.0273 37.5771L53.9118 38.3504L60.8537 34.1792Z" fill="#EADACC"/>
<path d="M55.3136 34.6836L55.7062 35.5667L56.3251 35.8357L56.7939 36.6201L53.9118 38.3505L53.0273 37.5772L54.4684 34.7038L55.3136 34.6836Z" fill="#3D479D"/>
<path d="M50.9535 99.4971C50.9905 99.4971 51.0297 99.4971 51.0667 99.506C51.2191 99.5576 51.2953 99.7212 51.2422 99.849C51.0528 100.362 50.8127 100.884 50.5078 101.357C50.4316 101.494 50.2561 101.537 50.1152 101.452C49.9767 101.375 49.9397 101.203 50.0275 101.066C50.3046 100.629 50.5332 100.149 50.711 99.6697C50.7503 99.5666 50.8519 99.4971 50.9535 99.4971Z" fill="#2B2975"/>
<path d="M4.98817 86.2168C5.02512 86.2168 5.05052 86.2168 5.08978 86.228L5.49392 86.3378C6.41535 86.6068 7.37835 86.878 8.38984 87.1963C8.54226 87.2456 8.61847 87.3935 8.56766 87.5392C8.51686 87.6849 8.36444 87.7611 8.21433 87.7118C7.21438 87.3913 6.26755 87.1223 5.34381 86.8646L4.93967 86.7547C4.78725 86.7189 4.6995 86.5575 4.7503 86.4118C4.7734 86.302 4.87501 86.228 4.98817 86.2168ZM11.489 88.3439C11.5259 88.3439 11.5767 88.3439 11.616 88.3618C12.7545 88.8325 13.766 89.3211 14.7152 89.8792C14.8537 89.9487 14.893 90.119 14.8168 90.2558C14.7406 90.3925 14.5627 90.4261 14.4242 90.3499C13.5004 89.8277 12.5028 89.339 11.3897 88.884C11.2511 88.8146 11.1749 88.6621 11.2396 88.5232C11.2973 88.4111 11.3874 88.3528 11.489 88.3439ZM17.3432 91.753C17.4194 91.753 17.4956 91.762 17.5464 91.8135C18.4448 92.5599 19.2415 93.3802 19.9227 94.2813C20.0128 94.4001 19.9874 94.5727 19.8719 94.6578C19.7449 94.743 19.5694 94.7183 19.4793 94.6152C18.8096 93.7501 18.0383 92.9521 17.1792 92.2327C17.0661 92.1296 17.0522 91.9592 17.1538 91.8471C17.2023 91.7866 17.267 91.762 17.3432 91.753ZM21.44 97.0314C21.5531 97.0135 21.6686 97.083 21.7171 97.1861C22.2113 98.2239 22.59 99.302 22.8302 100.391C22.8672 100.546 22.7679 100.692 22.6154 100.725C22.463 100.759 22.3129 100.665 22.2737 100.519C22.0335 99.4566 21.6802 98.4278 21.1975 97.4259C21.1351 97.2892 21.1975 97.1256 21.3361 97.0583C21.3776 97.0314 21.4007 97.0314 21.44 97.0314ZM19.8604 100.671C20.4793 100.629 21.1236 100.629 21.7702 100.662C21.9226 100.671 22.0473 100.799 22.0358 100.954C22.0219 101.117 21.8972 101.212 21.7333 101.212C21.1144 101.178 20.4931 101.178 19.8996 101.23C19.38 101.263 18.8743 101.342 18.394 101.436C18.2415 101.46 18.0914 101.375 18.0637 101.23C18.0268 101.084 18.1284 100.929 18.2785 100.905C18.7842 100.784 19.3154 100.714 19.8604 100.671ZM25.0934 101.236C25.1188 101.236 25.158 101.236 25.195 101.254C26.1695 101.512 27.181 101.828 28.4696 102.308C28.6221 102.359 28.6844 102.514 28.6336 102.66C28.5828 102.814 28.4188 102.875 28.2664 102.823C26.9894 102.361 25.9917 102.027 25.0426 101.779C24.8902 101.745 24.8024 101.599 24.8393 101.454C24.8786 101.321 24.9802 101.254 25.0934 101.236ZM15.1424 102.11C15.244 102.092 15.3456 102.144 15.3964 102.231C15.4842 102.359 15.4472 102.532 15.3063 102.617C14.8145 102.933 14.3572 103.285 13.9669 103.704C13.6251 104.065 13.3342 104.466 13.094 104.921C13.0178 105.058 12.8538 105.1 12.7153 105.042C12.5767 104.973 12.5259 104.811 12.5882 104.675C12.8538 104.177 13.1702 103.733 13.5489 103.339C13.9669 102.902 14.4588 102.507 14.99 102.164C15.0546 102.137 15.1054 102.119 15.1424 102.11ZM22.8418 103.473C22.8556 103.473 22.8672 103.473 22.8787 103.473C23.0311 103.482 23.1581 103.61 23.1443 103.756C23.0935 104.955 22.8533 106.078 22.4238 107.08C22.3591 107.216 22.1951 107.286 22.0566 107.225C21.918 107.165 21.8418 107.003 21.9042 106.873C22.3083 105.914 22.5369 104.861 22.5877 103.72C22.5785 103.592 22.6917 103.482 22.8418 103.473ZM31.5434 103.507C31.5803 103.507 31.6311 103.507 31.6704 103.525C32.0491 103.652 32.4163 103.807 32.7951 103.928C33.5294 104.186 34.2107 104.408 34.8804 104.605C35.0328 104.648 35.1206 104.802 35.0698 104.948C35.0328 105.094 34.8666 105.179 34.7164 105.127C34.0352 104.93 33.3378 104.717 32.5918 104.441C32.2131 104.305 31.8321 104.177 31.4533 104.022C31.3148 103.98 31.2386 103.816 31.2894 103.67C31.3402 103.583 31.4302 103.507 31.5434 103.507ZM47.9305 103.37C48.0183 103.361 48.1199 103.413 48.1823 103.482C48.27 103.61 48.2469 103.782 48.1176 103.868C47.1962 104.527 46.1454 105.058 45.0069 105.434C44.8545 105.486 44.7044 105.41 44.6536 105.264C44.6028 105.118 44.679 104.973 44.8314 104.921C45.9191 104.56 46.9052 104.065 47.7781 103.422C47.8174 103.388 47.8682 103.37 47.9305 103.37ZM38.1181 105.34C38.1435 105.34 38.1551 105.34 38.1805 105.34C39.3582 105.511 40.4829 105.571 41.5452 105.511C41.6976 105.493 41.8362 105.623 41.8362 105.768C41.8477 105.914 41.723 106.051 41.5706 106.051C40.469 106.111 39.3074 106.051 38.0927 105.862C37.9403 105.838 37.8271 105.708 37.8525 105.553C37.8779 105.434 37.9911 105.349 38.1181 105.34ZM12.2095 107.739C12.3619 107.73 12.4866 107.842 12.512 107.987C12.6252 108.913 13.0316 109.684 13.6621 110.231C13.8007 110.343 13.9392 110.453 14.0916 110.547C14.2186 110.641 14.2556 110.796 14.1794 110.932C14.0916 111.054 13.9277 111.096 13.7868 111.018C13.6113 110.906 13.445 110.787 13.2949 110.65C12.549 110 12.094 109.117 11.9532 108.064C11.9416 107.909 12.0409 107.781 12.1933 107.754C12.1957 107.739 12.2095 107.739 12.2095 107.739ZM20.2253 109.453C20.313 109.435 20.3892 109.471 20.4539 109.538C20.5555 109.641 20.5416 109.821 20.4285 109.915C19.5302 110.704 18.4194 111.269 17.2924 111.5C17.14 111.533 16.9899 111.439 16.9506 111.284C16.9137 111.139 17.013 110.993 17.1654 110.959C18.2023 110.737 19.2253 110.222 20.0498 109.494C20.1121 109.469 20.1745 109.462 20.2253 109.453Z" fill="#2B2975"/>
<path d="M0.258719 84.3994C0.323381 84.3994 0.39728 84.4106 0.448086 84.4599C0.776014 84.7065 1.23096 84.9508 1.83832 85.1973C1.97688 85.2579 2.05309 85.4192 1.99073 85.5537C1.92607 85.6882 1.76211 85.7622 1.62355 85.7016C0.979237 85.4439 0.473489 85.1749 0.106302 84.8925C-0.0207123 84.7939 -0.032259 84.6235 0.0554963 84.5115C0.108611 84.4375 0.182511 84.3994 0.258719 84.3994Z" fill="#2B2975"/>
<path d="M122.848 82.2729C130.386 76.5466 131.784 65.9556 125.972 58.6164C120.159 51.2772 109.336 49.9701 101.798 55.6963C94.2604 61.4226 92.8622 72.0137 98.6747 79.3528C104.487 86.692 115.311 87.9992 122.848 82.2729Z" fill="#F15A59"/>
<path d="M131.645 59.0847L116.507 70.6036C114.947 71.7818 112.694 71.5254 111.51 70.0266L111.485 69.9988C110.302 68.4961 110.602 66.2947 112.158 65.1146L127.302 53.6132C128.861 52.4321 131.114 52.6915 132.296 54.1912L132.324 54.2181C133.509 55.7169 133.205 57.9036 131.645 59.0847Z" fill="#F15A59"/>
<path d="M120.187 78.9119C125.812 74.6377 126.853 66.7308 122.51 61.2496C118.166 55.7684 110.086 54.7858 104.464 59.0592C98.8382 63.3305 97.7977 71.2403 102.141 76.7215C106.482 82.2036 114.561 83.1833 120.187 78.9119Z" fill="#D4BFA9"/>
<path d="M108.084 75.034C107.365 74.673 106.713 74.0624 106.732 73.2176C106.741 72.3406 107.421 71.8961 108.193 71.6479C109.754 71.1491 111.834 70.9336 112.366 69.0969C112.851 67.4502 111.622 66.1017 110.563 65.0183C110.025 64.4793 109.364 63.8364 109.34 63.0236C109.306 62.1786 110.2 61.7373 110.948 61.5856C111.919 61.4024 111.475 59.9613 110.503 60.1445C108.548 60.5338 107.282 62.2722 108.016 64.1347C108.43 65.1637 109.268 65.8593 110.002 66.6369C110.527 67.1989 111.24 68.139 110.755 68.9308C110.247 69.7646 108.908 69.8623 108.043 70.1033C107.044 70.3839 106.067 70.8464 105.549 71.7693C104.547 73.5539 105.646 75.5504 107.347 76.3727C108.248 76.8041 108.969 75.4698 108.084 75.034Z" fill="#EADACC"/>
<path d="M114.12 76.9277C112.668 75.8561 114.833 74.2365 115.676 73.6194C116.818 72.7921 118.536 71.9147 118.958 70.4781C119.329 69.1809 118.563 67.9406 117.775 66.9841C116.838 65.8299 116.147 64.6565 116.96 63.2089C117.446 62.3658 116.073 61.6727 115.589 62.5343C114.832 63.86 114.867 65.4387 115.647 66.7259C116.28 67.7601 118.334 69.3518 117.105 70.6613C116.501 71.2939 115.669 71.7706 114.963 72.293C114.255 72.8193 113.503 73.3203 112.951 74.0075C111.985 75.1845 111.72 77.0821 113.057 78.0635C113.849 78.6164 114.906 77.5144 114.12 76.9277Z" fill="#EADACC"/>
</svg>
