<svg width="32" height="35" viewBox="0 0 32 35" fill="none" xmlns="http://www.w3.org/2000/svg">
<path d="M9.57981 34.0449C7.26603 34.1462 5.00292 33.3356 3.29714 31.7649C1.6927 30.0591 0.865158 27.7791 0.966491 25.4316V11.228C0.848269 8.93113 1.69271 6.66803 3.28026 5.01292C4.76648 3.64492 6.69183 2.85112 8.70161 2.80045V1.46624C8.68472 0.824465 9.20826 0.284026 9.85004 0.284026C10.4411 0.284026 10.9478 0.706233 11.0323 1.29734L11.0491 1.46624V2.76669H21.3007V1.46624C21.2838 0.824465 21.7905 0.28401 22.4323 0.267121C23.0403 0.250232 23.5469 0.706233 23.6314 1.29734L23.6483 1.46624V2.78357C25.6918 2.85113 27.6509 3.66181 29.1372 5.06358C30.6741 6.73558 31.4847 8.94802 31.3834 11.228V25.5667C31.5016 27.8805 30.6572 30.1267 29.0696 31.7987C27.3469 33.3524 25.0838 34.1631 22.77 34.0449H9.57981ZM3.29714 25.4316C2.94247 28.5222 5.17181 31.3258 8.26248 31.6805C8.70159 31.7311 9.1407 31.7311 9.57981 31.6805H22.7532C26.7896 31.6805 29.0189 29.5018 29.0189 25.5498V14.2511H3.29714V25.4316ZM29.0189 11.9036V11.228C29.1372 9.57291 28.5629 7.95157 27.4651 6.73557C26.418 5.75601 25.0669 5.19869 23.6314 5.16491V6.65112C23.6483 7.2929 23.1247 7.83336 22.4829 7.83336C21.8749 7.85025 21.3683 7.39425 21.3007 6.80314L21.2838 6.63424V5.11425H11.0323V6.63424C11.0323 7.27602 10.5087 7.79957 9.86694 7.81646C9.27583 7.81646 8.78605 7.37736 8.70161 6.80314L8.6847 6.63424V5.14801C5.66159 5.1649 3.22959 7.61379 3.24648 10.6369C3.24648 10.8396 3.26337 11.0254 3.28026 11.228V11.9036H29.0189ZM21.9087 25.3302C21.9087 24.7391 22.3478 24.2494 22.922 24.1649L23.0909 24.148C23.7496 24.1649 24.2563 24.7222 24.2225 25.3809C24.2056 25.9382 23.8002 26.4111 23.2429 26.4956L23.0909 26.5125C22.4491 26.5125 21.9087 25.972 21.9087 25.3302ZM14.9843 25.3302C14.9843 24.7391 15.4234 24.2494 15.9976 24.1649L16.1665 24.148C16.8251 24.1649 17.3318 24.7222 17.298 25.3809C17.2812 25.9382 16.8758 26.4111 16.3185 26.4956L16.1496 26.5125C15.5247 26.4956 15.0012 25.972 14.9843 25.3302ZM8.05982 25.3302C8.05982 24.7391 8.49894 24.2494 9.07316 24.1649L9.24206 24.148C9.90073 24.1818 10.3905 24.7391 10.3736 25.3809C10.3398 25.9382 9.95135 26.3942 9.41091 26.4956L9.24206 26.5125C8.5834 26.4956 8.05982 25.972 8.05982 25.3302ZM21.9087 19.2165C21.9087 18.6253 22.3478 18.1356 22.922 18.0511L23.0909 18.0342C23.7496 18.068 24.2394 18.6253 24.2225 19.2671C24.1887 19.8245 23.8003 20.2805 23.2598 20.3818L23.1078 20.3987C22.4492 20.3987 21.9087 19.8751 21.9087 19.2165ZM14.9843 19.2165C14.9843 18.6253 15.4234 18.1356 15.9976 18.0511L16.1665 18.0342C16.8251 18.0511 17.3318 18.6085 17.298 19.2671C17.2812 19.8245 16.8758 20.2973 16.3185 20.3818L16.1496 20.3987C15.5247 20.3987 15.0012 19.8751 14.9843 19.2165ZM8.05982 19.2165C8.05982 18.6253 8.49894 18.1356 9.07316 18.0511L9.24206 18.0342C9.90073 18.068 10.3905 18.6253 10.3736 19.2671C10.3398 19.8245 9.95135 20.2805 9.41091 20.3818L9.24206 20.3987C8.5834 20.3987 8.05982 19.8751 8.05982 19.2165Z" fill="white"/>
</svg>
